<svg xmlns="http://www.w3.org/2000/svg" fill="#000000" width="20" height="20"><rect id="backgroundrect" width="100%" height="100%" x="0" y="0" fill="none" stroke="none"/>    <g class="currentLayer" style=""><title>Layer 1</title><path d="M10.011719,0 C4.5057187,0 0.023484400000000082,4.478375 0.02148439999999986,9.984375 C0.02048439999999996,11.744375 0.4814687000000003,13.462563 1.3554688000000001,14.976562000000001 L0,20 L5.2324219,18.763672 C6.6914219,19.559672 8.333859,19.977516 10.005859,19.978516 L10.009766,19.978516 C15.514766000000002,19.978516 19.995047,15.499141000000002 19.998047,9.994141 C20.000047,7.325140599999999 18.962172,4.8157344 17.076172,2.9277344000000003 C15.190172,1.0407343999999998 12.683719,0.0009999999999998905 10.011719,0 zM10.009766,2 C12.145766,2.0010000000000003 14.153109,2.8337969000000003 15.662109000000001,4.3417969 C17.171109,5.8517969 18.000047,7.8581875 17.998047,9.992188 C17.996047,14.396187000000001 14.413812,17.978516 10.007812,17.978516 C8.674812,17.977516 7.3544062,17.642812 6.191406199999999,17.007812 L5.5175781,16.640625 L4.7734375,16.816406 L2.8046875,17.28125 L3.2851562000000003,15.496094 L3.5019530999999997,14.695312000000001 L3.0878905999999997,13.976562 C2.3898906,12.768562 2.0204844,11.387375 2.0214844000000003,9.984375 C2.0234844,5.582375 5.6067656,2 10.009766,2 zM6.4765625,5.375 C6.3095625,5.375 6.0395468999999995,5.4375 5.8105469,5.6875 C5.5815469,5.9365 4.9355469,6.5395781 4.9355469,7.7675781 C4.9355469,8.995578 5.8300781,10.182609 5.9550781,10.349609000000001 C6.0790781,10.515609 7.681750000000001,13.115234 10.21875,14.115234000000001 C12.32675,14.946234 12.754891,14.782233999999999 13.212891,14.740234000000001 C13.670891000000001,14.699234 14.690438,14.137687 14.898437999999999,13.554688 C15.106437,12.971687 15.106922,12.470187 15.044922,12.367188 C14.982921999999999,12.263188 14.816406,12.201172 14.566406,12.076172 C14.317405999999998,11.951172 13.090328,11.348625 12.861328,11.265625 C12.632328,11.182625 12.464828,11.140625 12.298828,11.390625 C12.132828,11.640625 11.655766,12.201187000000001 11.509765999999999,12.367188 C11.363766,12.534188 11.21875,12.556641 10.96875,12.431641 C10.71875,12.305641 9.914938,12.041406 8.960938,11.191406 C8.218937,10.530406 7.7182656000000005,9.714844 7.5722656,9.464844 C7.4272656,9.215844 7.558593800000001,9.079078 7.6835938000000015,8.955078 C7.795593800000001,8.843078 7.9316406,8.663578 8.056641,8.517578 C8.180641,8.371578 8.223641,8.267562 8.306641,8.101562 C8.389641,7.9355625 8.347156,7.7890625 8.285156,7.6640625 C8.223156,7.5390625 7.7376249999999995,6.3065 7.515625,5.8125 C7.328625000000001,5.3975 7.131125000000001,5.3878594 6.953125,5.3808594 C6.808125,5.3748594 6.6425625,5.375 6.4765625,5.375 z" id="svg_1" class="selected" fill="#ffffff" fill-opacity="1"/></g></svg>